<svg width="15" height="9" viewBox="0 0 15 9" fill="none"
    xmlns="http://www.w3.org/2000/svg">
    <path d="M7.00028 7.99997C6.76662 8.00043 6.54019 7.91905 6.36028 7.76997L0.360276 2.76997C0.156059 2.60023 0.0276347 2.35632 0.00325494 2.09189C-0.0211248 1.82747 0.0605371 1.56419 0.230276 1.35997C0.400014 1.15575 0.643926 1.02733 0.908352 1.00295C1.17278 0.97857 1.43606 1.06023 1.64028 1.22997L7.00028 5.70997L12.3603 1.38997C12.4626 1.3069 12.5803 1.24487 12.7066 1.20744C12.8329 1.17001 12.9654 1.15792 13.0965 1.17186C13.2275 1.18579 13.3545 1.22549 13.4701 1.28866C13.5857 1.35184 13.6878 1.43724 13.7703 1.53997C13.8619 1.64279 13.9312 1.76342 13.974 1.89429C14.0168 2.02517 14.0321 2.16347 14.019 2.30053C14.0058 2.43759 13.9645 2.57047 13.8976 2.69082C13.8307 2.81118 13.7397 2.91643 13.6303 2.99997L7.63028 7.82997C7.44519 7.95549 7.22338 8.01534 7.00028 7.99997Z" fill="#C6CFE2"/>
</svg>
