<svg width="56" height="56" viewBox="0 0 56 56" fill="none" xmlns="http://www.w3.org/2000/svg">
<rect width="56" height="56" rx="28" fill="#A50CD4"/>
<path d="M21.3333 36.0001C19.8667 36.0001 18.68 37.2001 18.68 38.6668C18.68 40.1334 19.8667 41.3334 21.3333 41.3334C22.8 41.3334 24 40.1334 24 38.6668C24 37.2001 22.8 36.0001 21.3333 36.0001ZM14.6667 17.3334H16L20.8 27.4534L19 30.7067C18.0267 32.4934 19.3067 34.6667 21.3333 34.6667H36C36.7333 34.6667 37.3333 34.0667 37.3333 33.3334C37.3333 32.6001 36.7333 32.0001 36 32.0001H21.3333L22.8 29.3334H32.7333C33.7333 29.3334 34.6133 28.7867 35.0667 27.9601L39.84 19.3067C40.3333 18.4267 39.6933 17.3334 38.68 17.3334H18.9467L18.0533 15.4267C17.84 14.9601 17.36 14.6667 16.8533 14.6667H14.6667C13.9333 14.6667 13.3333 15.2667 13.3333 16.0001C13.3333 16.7334 13.9333 17.3334 14.6667 17.3334ZM34.6667 36.0001C33.2 36.0001 32.0133 37.2001 32.0133 38.6668C32.0133 40.1334 33.2 41.3334 34.6667 41.3334C36.1333 41.3334 37.3333 40.1334 37.3333 38.6668C37.3333 37.2001 36.1333 36.0001 34.6667 36.0001Z" fill="white"/>
</svg>
