<svg width="56" height="56" viewBox="0 0 56 56" fill="none" xmlns="http://www.w3.org/2000/svg">
<rect width="56" height="56" rx="28" fill="#A50CD4"/>
<path d="M21.3333 22.6667C20.6 22.6667 20 23.2667 20 24.0001V32.0001C20 33.4667 21.2 34.6667 22.6667 34.6667H33.3333C34.0667 34.6667 34.6667 34.0667 34.6667 33.3334C34.6667 32.6001 34.0667 32.0001 33.3333 32.0001H22.6667V24.0001C22.6667 23.2667 22.0667 22.6667 21.3333 22.6667Z" fill="white"/>
<path d="M38.6667 16H28C26.5333 16 25.3333 17.2 25.3333 18.6667V26.6667C25.3333 28.1333 26.5333 29.3333 28 29.3333H38.6667C40.1333 29.3333 41.3333 28.1333 41.3333 26.6667V18.6667C41.3333 17.2 40.1333 16 38.6667 16ZM38 26.6667H28.6667C28.2933 26.6667 28 26.3733 28 26V21.3333H38.6667V26C38.6667 26.3733 38.3733 26.6667 38 26.6667Z" fill="white"/>
<path d="M16 28C15.2667 28 14.6667 28.6 14.6667 29.3333V37.3333C14.6667 38.8 15.8667 40 17.3333 40H28C28.7333 40 29.3333 39.4 29.3333 38.6667C29.3333 37.9333 28.7333 37.3333 28 37.3333H17.3333V29.3333C17.3333 28.6 16.7333 28 16 28Z" fill="white"/>
</svg>
