<svg width="56" height="56" viewBox="0 0 56 56" fill="none" xmlns="http://www.w3.org/2000/svg">
<rect width="56" height="56" rx="28" fill="#A50CD4"/>
<path d="M18.6667 39.9998H16V38.6665C16.0059 33.5143 20.1811 29.3391 25.3333 29.3332H30.6667C35.8189 29.3391 39.9941 33.5143 40 38.6665V39.9998H37.3333V38.6665C37.3289 34.9864 34.3467 32.0042 30.6667 31.9998H25.3333C21.6533 32.0042 18.6711 34.9864 18.6667 38.6665V39.9998ZM28 27.9998C24.3181 27.9998 21.3333 25.0151 21.3333 21.3332C21.3333 17.6513 24.3181 14.6665 28 14.6665C31.6819 14.6665 34.6667 17.6513 34.6667 21.3332C34.6623 25.0132 31.6801 27.9954 28 27.9998ZM28 17.3332C25.7909 17.3332 24 19.124 24 21.3332C24 23.5423 25.7909 25.3332 28 25.3332C30.2091 25.3332 32 23.5423 32 21.3332C32 19.124 30.2091 17.3332 28 17.3332Z" fill="white"/>
</svg>
