<svg width="24" height="24" viewBox="0 0 24 24" fill="none" xmlns="http://www.w3.org/2000/svg">
<path opacity="0.9" fill-rule="evenodd" clip-rule="evenodd" d="M12 23.8816C18.6276 23.8816 24 18.5356 24 11.9408C24 5.34594 18.6276 0 12 0C5.37245 0 0 5.34594 0 11.9408C0 18.5356 5.37245 23.8816 12 23.8816ZM18.0176 5.95319C18.3012 6.22727 18.5194 6.56119 18.6563 6.93011C18.7733 7.22948 18.9124 7.67945 18.9503 8.50781C18.9914 9.40368 19 9.67235 19 11.9412C19 14.2097 18.9914 14.4784 18.9503 15.3745C18.9122 16.2029 18.7731 16.6526 18.6563 16.952C18.369 17.693 17.7804 18.2786 17.0358 18.5644C16.7349 18.6809 16.2827 18.8193 15.4503 18.857C14.5502 18.8979 14.2802 18.9065 11.9999 18.9065C9.71984 18.9065 9.45006 18.8979 8.54975 18.857C7.71727 18.8193 7.26508 18.6809 6.96422 18.5644C6.59325 18.4283 6.2579 18.2111 5.98245 17.9289C5.69883 17.6548 5.48079 17.3211 5.34374 16.952C5.22689 16.6526 5.08781 16.2029 5.04992 15.3745C5.00885 14.4784 5 14.2097 5 11.9412C5 9.67235 5.00885 9.40368 5.04992 8.50781C5.08781 7.67945 5.22689 7.22948 5.34374 6.93011C5.48079 6.56097 5.69906 6.22727 5.98268 5.95319C6.2579 5.67097 6.59347 5.45377 6.96444 5.31763C7.26508 5.20136 7.71727 5.06296 8.54975 5.02503C9.45006 4.98417 9.72006 4.97559 12.0001 4.97559C14.2799 4.97559 14.5499 4.98439 15.4505 5.02526C16.283 5.06296 16.7349 5.20136 17.0358 5.31763C17.4068 5.45377 17.7421 5.67097 18.0176 5.95319ZM7.6154 11.9409C7.6154 14.3506 9.57848 16.3038 12.0001 16.3038C14.4215 16.3038 16.3846 14.3506 16.3846 11.9409C16.3846 9.53125 14.4215 7.57808 12.0001 7.57808C9.57848 7.57808 7.6154 9.53125 7.6154 11.9409ZM15.5333 7.40559C15.5333 7.96867 15.9921 8.42518 16.5579 8.42518C17.1238 8.42518 17.5824 7.96867 17.5826 7.40559C17.5826 6.84251 17.1238 6.38599 16.5579 6.38599C15.9921 6.38599 15.5333 6.84251 15.5333 7.40559Z" fill="white"/>
</svg>
