<svg width="24" height="25" viewBox="0 0 24 25" fill="none" xmlns="http://www.w3.org/2000/svg">
<path opacity="0.9" d="M12 0.826172C5.3736 0.826172 0 6.19977 0 12.8262C0 19.4526 5.3736 24.8262 12 24.8262C18.6264 24.8262 24 19.4526 24 12.8262C24 6.19977 18.6264 0.826172 12 0.826172ZM8.51294 17.5055C8.51294 18.3126 7.85871 18.9668 7.05167 18.9668C6.24463 18.9668 5.59039 18.3126 5.59039 17.5055V11.6355C5.59039 10.8285 6.24463 10.1743 7.05167 10.1743C7.85871 10.1743 8.51294 10.8285 8.51294 11.6355V17.5055ZM7.05176 8.97363H7.03271C6.052 8.97363 5.41772 8.29852 5.41772 7.45477C5.41772 6.59198 6.07141 5.93555 7.07117 5.93555C8.07092 5.93555 8.68616 6.59198 8.7052 7.45477C8.7052 8.29852 8.07092 8.97363 7.05176 8.97363ZM19.051 17.5057C19.051 18.3126 18.3969 18.9668 17.5899 18.9668C16.783 18.9668 16.1288 18.3126 16.1288 17.5057V14.263C16.1288 13.0809 15.7057 12.2747 14.6483 12.2747C13.8409 12.2747 13.3601 12.8185 13.1488 13.3434C13.0715 13.5313 13.0527 13.7939 13.0527 14.0566V17.5091C13.0527 18.3142 12.4001 18.9668 11.595 18.9668C10.7872 18.9668 10.1334 18.3123 10.1365 17.5045C10.1427 15.8944 10.1506 13.3158 10.1459 11.6671C10.1436 10.8528 10.8111 10.1743 11.6254 10.1743H12.7685C12.9255 10.1743 13.0527 10.3015 13.0527 10.4584C13.0527 10.7415 13.4534 10.871 13.6641 10.682C14.0983 10.2926 14.7294 9.9679 15.6865 9.9679C17.6093 9.9679 19.051 11.2245 19.051 13.9252V17.5057Z" fill="white"/>
</svg>
