<svg width="56" height="56" viewBox="0 0 56 56" fill="none" xmlns="http://www.w3.org/2000/svg">
<rect width="56" height="56" rx="28" fill="#A50CD4"/>
<path d="M40.6667 17.3335H36L38.32 20.8135C38.4667 21.0402 38.3067 21.3335 38.04 21.3335H35.3733C34.9333 21.3335 34.5067 21.1068 34.2667 20.7335L32 17.3335H29.3333L31.6533 20.8135C31.8 21.0402 31.64 21.3335 31.3733 21.3335H28.7067C28.2667 21.3335 27.84 21.1068 27.6 20.7335L25.3333 17.3335H22.6667L24.9867 20.8135C25.1333 21.0402 24.9733 21.3335 24.7067 21.3335H22.04C21.6 21.3335 21.1867 21.1068 20.9333 20.7335L18.6667 17.3335H17.3333C15.8667 17.3335 14.68 18.5335 14.68 20.0002L14.6667 36.0002C14.6667 37.4668 15.8667 38.6668 17.3333 38.6668H38.6667C40.1333 38.6668 41.3333 37.4668 41.3333 36.0002V18.0002C41.3333 17.6268 41.04 17.3335 40.6667 17.3335ZM27 32.3335L25.3333 36.0002L23.6667 32.3335L20 30.6668L23.6667 29.0002L25.3333 25.3335L27 29.0002L30.6667 30.6668L27 32.3335ZM34.5867 27.9202L33.3333 30.6668L32.08 27.9202L29.3333 26.6668L32.08 25.4135L33.3333 22.6668L34.5867 25.4135L37.3333 26.6668L34.5867 27.9202Z" fill="white"/>
</svg>
