<svg width="56" height="56" viewBox="0 0 56 56" fill="none" xmlns="http://www.w3.org/2000/svg">
<rect width="56" height="56" rx="28" fill="#A50CD4"/>
<path d="M38.6667 38.6666H17.3333C15.9074 38.7093 14.7152 37.591 14.6667 36.1652V19.8333C14.7152 18.4077 15.9076 17.2898 17.3333 17.3333H38.6667C40.0924 17.2898 41.2848 18.4077 41.3333 19.8333V36.1666C41.2841 37.5918 40.0921 38.7093 38.6667 38.6666ZM17.3333 19.9999V35.9852L38.6667 35.9999V20.0146L17.3333 19.9999ZM29.9067 33.3332H20C20.098 32.2293 20.6205 31.2065 21.4573 30.4799C22.3891 29.5555 23.6411 29.0255 24.9533 28.9999C26.2656 29.0255 27.5176 29.5555 28.4493 30.4799C29.286 31.2066 29.8084 32.2294 29.9067 33.3332ZM36 31.9999H32V29.3332H36V31.9999ZM24.9533 27.9999C24.2388 28.0247 23.546 27.7518 23.0404 27.2462C22.5348 26.7406 22.2618 26.0478 22.2867 25.3333C22.2622 24.6188 22.5353 23.9262 23.0408 23.4207C23.5463 22.9153 24.2389 22.6422 24.9533 22.6666C25.6678 22.6422 26.3603 22.9153 26.8658 23.4207C27.3713 23.9262 27.6444 24.6188 27.62 25.3333C27.6448 26.0478 27.3719 26.7406 26.8663 27.2462C26.3607 27.7518 25.6679 28.0247 24.9533 27.9999ZM36 26.6666H30.6667V23.9999H36V26.6666Z" fill="white"/>
</svg>
