<svg width="24" height="25" viewBox="0 0 24 25" fill="none" xmlns="http://www.w3.org/2000/svg">
<g clip-path="url(#clip0_555_520)">
<path opacity="0.9" fill-rule="evenodd" clip-rule="evenodd" d="M24.0342 12.6162C24.0342 19.2436 18.6616 24.6162 12.0342 24.6162C5.40676 24.6162 0.0341797 19.2436 0.0341797 12.6162C0.0341797 5.98879 5.40676 0.616211 12.0342 0.616211C18.6616 0.616211 24.0342 5.98879 24.0342 12.6162ZM18.2925 10.8692C19.2521 10.8692 20.0395 11.6425 20.0395 12.6162C20.0395 13.3321 19.61 13.9479 19.0086 14.2201C19.0372 14.3918 19.0516 14.5781 19.0516 14.75C19.0516 17.4563 15.9155 19.6331 12.0492 19.6331C8.1828 19.6331 5.04674 17.4419 5.04674 14.75C5.04674 14.5637 5.06088 14.3918 5.08971 14.2201C4.48807 13.9479 4.05859 13.3465 4.05859 12.6306C4.05859 11.671 4.83187 10.8836 5.8056 10.8836C6.2589 10.883 6.69495 11.0574 7.02276 11.3705C8.23992 10.4969 9.91539 9.93846 11.7769 9.88107L12.665 5.69974C12.6791 5.61379 12.7221 5.54226 12.7936 5.49928C12.851 5.45631 12.9369 5.4419 13.0229 5.45631L15.9297 6.0721C16.1301 5.65677 16.5599 5.37036 17.0467 5.37036C17.7341 5.37036 18.2925 5.92876 18.2925 6.61608C18.2925 7.30367 17.7341 7.86207 17.0467 7.86207C16.3736 7.86207 15.8296 7.33224 15.8008 6.67347L13.1945 6.11507L12.3927 9.86692C14.2256 9.93846 15.8726 10.4969 17.0753 11.3561C17.3903 11.0553 17.82 10.8692 18.2925 10.8692ZM9.28546 12.6162C8.59787 12.6162 8.03947 13.1746 8.03947 13.8619C8.03947 14.5493 8.59787 15.1221 9.28546 15.1079C9.97278 15.1079 10.5312 14.5493 10.5312 13.8619C10.5312 13.1746 9.97278 12.6162 9.28546 12.6162ZM12.0492 18.0865C12.5216 18.0865 14.1541 18.0291 15.0133 17.1699C15.1278 17.041 15.1278 16.8405 15.0133 16.7116C14.8844 16.5829 14.684 16.5829 14.555 16.7116C14.0252 17.2558 12.8654 17.4419 12.0492 17.4419C11.2329 17.4419 10.0873 17.2558 9.54304 16.7116C9.41411 16.5829 9.21366 16.5829 9.08473 16.7116C8.95608 16.8405 8.95608 17.041 9.08473 17.1699C9.92981 18.0147 11.5623 18.0865 12.0492 18.0865ZM13.5383 13.8764C13.5383 14.5637 14.0967 15.1221 14.784 15.1221C15.4716 15.1221 16.03 14.5493 16.03 13.8764C16.03 13.189 15.4716 12.6306 14.784 12.6306C14.0967 12.6306 13.5383 13.189 13.5383 13.8764Z" fill="white"/>
</g>
<defs>
<clipPath id="clip0_555_520">
<rect width="24" height="25" fill="white"/>
</clipPath>
</defs>
</svg>
