<svg width="24" height="24" viewBox="0 0 24 24" fill="none" xmlns="http://www.w3.org/2000/svg">
<path opacity="0.9" d="M24 11.9408C24 18.5356 18.6276 23.8816 12 23.8816C5.37245 23.8816 0 18.5356 0 11.9408C0 5.34594 5.37245 0 12 0C18.6276 0 24 5.34594 24 11.9408Z" fill="white"/>
<path d="M18 8.27925C17.5538 8.475 17.0782 8.60475 16.5825 8.66775C17.0925 8.36325 17.4818 7.88475 17.6648 7.308C17.1892 7.5915 16.6642 7.79175 16.1047 7.9035C15.6532 7.42275 15.0097 7.125 14.3077 7.125C12.9457 7.125 11.8492 8.2305 11.8492 9.58575C11.8492 9.78075 11.8657 9.96825 11.9062 10.1467C9.861 10.047 8.05125 9.06675 6.8355 7.5735C6.62325 7.94175 6.49875 8.36325 6.49875 8.817C6.49875 9.669 6.9375 10.4242 7.5915 10.8615C7.19625 10.854 6.8085 10.7392 6.48 10.5585C6.48 10.566 6.48 10.5757 6.48 10.5855C6.48 11.781 7.33275 12.774 8.451 13.0027C8.25075 13.0575 8.0325 13.0837 7.806 13.0837C7.6485 13.0837 7.4895 13.0747 7.34025 13.0417C7.659 14.016 8.5635 14.7322 9.639 14.7555C8.802 15.4102 7.73925 15.8048 6.58875 15.8048C6.387 15.8048 6.1935 15.7957 6 15.771C7.08975 16.4738 8.38125 16.875 9.774 16.875C14.301 16.875 16.776 13.125 16.776 9.8745C16.776 9.76575 16.7723 9.66075 16.767 9.5565C17.2552 9.21 17.6655 8.77725 18 8.27925Z" fill="#101112"/>
</svg>
